#tb 0: 1/25
#media_type 0: video
#codec_id 0: rawvideo
#dimensions 0: 416x240
#sar 0: 0/1
0,          0,          0,        1,   149760, 0x5c4f70f4
0,          1,          1,        1,   149760, 0xf4628e59
0,          2,          2,        1,   149760, 0xa28e5bdc
0,          3,          3,        1,   149760, 0xda0e53d7
0,          4,          4,        1,   149760, 0x42dd334a
0,          5,          5,        1,   149760, 0x25ba9dfe
0,          6,          6,        1,   149760, 0x8854d8ca
0,          7,          7,        1,   149760, 0xc04505d4
0,          8,          8,        1,   149760, 0xd3fce146
0,          9,          9,        1,   149760, 0x8bfd88bd
0,         10,         10,        1,   149760, 0x33d965b2
0,         11,         11,        1,   149760, 0x12746b7a
0,         12,         12,        1,   149760, 0xb7642694
0,         13,         13,        1,   149760, 0x32b5035f
0,         14,         14,        1,   149760, 0x7bea0af1
0,         15,         15,        1,   149760, 0x577d4fc8
0,         16,         16,        1,   149760, 0x023a9c66
0,         17,         17,        1,   149760, 0x9abe76c4
0,         18,         18,        1,   149760, 0x2b14dba5
0,         19,         19,        1,   149760, 0x7b8affcf
0,         20,         20,        1,   149760, 0x21e4c323
0,         21,         21,        1,   149760, 0xf0b7d9cd
0,         22,         22,        1,   149760, 0x4db0c5bc
0,         23,         23,        1,   149760, 0xf455f752
0,         24,         24,        1,   149760, 0x569fec99
